<svg t="1606990782112" class="icon" viewBox="0 0 1024 1024" version="1.1" xmlns="http://www.w3.org/2000/svg" p-id="7439" width="128" height="128"><path d="M902.4 316.8c0-16-16-32-32-32h-108.8c-6.4-124.8-115.2-224-246.4-224h-19.2c-131.2 0-240 99.2-246.4 224H147.2c-16 0-32 12.8-32 32L96 844.8v3.2c3.2 64 54.4 112 115.2 112h595.2c60.8 0 112-48 118.4-108.8v-3.2l-22.4-531.2zM316.8 448c0 19.2-12.8 32-32 32s-32-12.8-32-32v-64c0-19.2 12.8-32 32-32s32 12.8 32 32v64z m246.4 441.6c28.8-64-6.4-144-64-182.4-3.2 70.4-25.6 86.4-64 137.6-12.8 25.6-9.6 41.6 0 54.4-9.6-3.2-12.8-6.4-12.8-6.4-86.4-48-108.8-92.8-96-153.6 9.6-44.8 44.8-83.2 48-128 12.8 22.4 16 41.6 16 67.2 41.6-51.2 86.4-121.6 76.8-182.4 0 0 80 25.6 112 147.2 19.2-16 16-51.2 6.4-73.6 32 16 198.4 198.4-22.4 320zM316.8 288c6.4-89.6 86.4-160 182.4-160h19.2c96 0 176 70.4 182.4 160h-384z m448 160c0 19.2-12.8 32-32 32s-32-12.8-32-32v-64c0-19.2 12.8-32 32-32s32 12.8 32 32v64z" fill="#bfcbd9" p-id="7440"></path></svg>