<svg t="1619766481164" class="icon" viewBox="0 0 1024 1024" version="1.1" xmlns="http://www.w3.org/2000/svg" p-id="3998" width="200" height="200"><path d="M263.8 646.3h-144c-4.4 0-8 3.6-8 8v298c0 4.5 3.6 8 8 8h144c4.4 0 8-3.6 8-8v-298c0-4.4-3.6-8-8-8zM477.2 520.3h-144c-4.4 0-8 3.6-8 8v424c0 4.5 3.6 8 8 8h144c4.4 0 8-3.6 8-8v-424c0-4.4-3.6-8-8-8zM690.6 624.3h-144c-4.4 0-8 3.6-8 8v320c0 4.5 3.6 8 8 8h144c4.4 0 8-3.6 8-8v-320c0-4.4-3.6-8-8-8zM904.1 400.3h-144c-4.4 0-8 3.6-8 8v544c0 4.5 3.5 8 8 8h144c4.4 0 8-3.6 8-8v-544c0-4.4-3.6-8-8-8z" p-id="3999" fill="#bfbfbf"></path><path d="M125.7 580.4L405.1 301l150.8 150.8-0.1 0.1L601 497l0.1-0.1 45.3-45.3 204.4-204.4 61.4 61.4-1.7-166.2c0-1-0.8-1.8-1.8-1.8L742.5 139l63.1 63.1-204.5 204.3-150.8-150.8-45.3-45.3-290.7 290.8c-1.5 1.5-2.3 3.5-2.3 5.7v67.9c0 7.1 8.6 10.7 13.7 5.7z" p-id="4000" fill="#bfbfbf"></path></svg>