<?xml version="1.0" standalone="no"?><!DOCTYPE svg PUBLIC "-//W3C//DTD SVG 1.1//EN" "http://www.w3.org/Graphics/SVG/1.1/DTD/svg11.dtd"><svg t="1622081823333" class="icon" viewBox="0 0 1024 1024" version="1.1" xmlns="http://www.w3.org/2000/svg" p-id="2616" xmlns:xlink="http://www.w3.org/1999/xlink" width="200" height="200"><defs><style type="text/css"></style></defs><path d="M306.65216 821.12H250.25024c-94.7968 0-171.5968-76.78976-171.5968-171.5968 0-94.80192 76.8-171.60192 171.5968-171.60192h29.99808c1.2032 0 10.8032 1.19808 20.39808-9.6 9.6-10.79808 6.00064-20.39808 6.00064-32.39936 0-142.80192 116.39808-259.2 258.00192-259.2 67.2 0 128.39936 25.20064 173.99808 67.2 4.79744 4.79744 3.59424 4.79744 9.59488 9.6 6.00576 8.40192 14.39744 13.19936 25.20064 13.19936 15.60064 0 28.80512-13.19936 28.80512-28.8 0-9.6-4.80256-18.00192-12.0064-25.20064-4.79744-4.80256-3.59424-3.59936-9.6-8.40192-56.40192-54.00064-131.9936-86.4-215.99744-86.4-169.20064 0-307.2 133.1968-315.60192 299.99616-125.99808 0-227.9936 102.00576-227.9936 227.99872s101.99552 227.9936 227.9936 227.9936h55.19872c15.60064 0 28.8-13.19936 28.8-28.79488 1.20832-11.99104-10.79296-23.99232-26.38848-23.99232z" p-id="2617" fill="#ffffff"></path><path d="M1005.21472 561.77152l-66.22208-188.59008-0.55296-1.3312c-10.6496-22.3744-25.46688-43.0848-61.36832-43.0848H472.32c-35.91168 0-50.7136 20.7104-61.37856 43.0848L344.1664 561.77152l4.2496 1.4848h-2.46272c0 31.54432 25.66656 57.21088 57.20064 57.21088a56.9856 56.9856 0 0 0 16.75264-2.51392v215.47008c0 35.48672 27.22816 64.34816 60.68224 64.34816h388.21376c33.44896 0 60.68224-28.86656 60.68224-64.34816v-215.47008c5.4272 1.664 11.07456 2.51392 16.74752 2.51392 31.55456 0 57.21088-25.66656 57.21088-57.21088h-2.46784l4.23936-1.4848z m-102.8352 271.64672c0 20.53632-15.06816 37.248-33.58208 37.248H480.58368c-18.51904 0-33.58208-16.7168-33.58208-37.248v-232.8576h-0.57856c0.6912-0.7936 1.34144-1.61792 1.98656-2.45248 10.4704 13.56288 26.83904 22.34368 45.25568 22.34368 18.41152 0 34.78016-8.7808 45.25568-22.34368 10.4704 13.56288 26.8288 22.34368 45.25568 22.34368 18.41664 0 34.78528-8.7808 45.25568-22.34368 10.47552 13.56288 26.83904 22.34368 45.2608 22.34368s34.78016-8.7808 45.25568-22.34368c10.47552 13.56288 26.83392 22.34368 45.2608 22.34368 18.41664 0 34.7904-8.7808 45.2608-22.34368 10.4704 13.56288 26.83904 22.34368 45.25056 22.34368 18.42176 0 34.7904-8.7808 45.2608-22.34368 0.64512 0.83456 1.29536 1.65376 1.98144 2.45248h-0.5632v232.8576h-0.02048z m43.84768-240.0512a30.14144 30.14144 0 0 1-30.1056-30.11072h-30.30016a30.14144 30.14144 0 0 1-30.10048 30.11072 30.14144 30.14144 0 0 1-30.11072-30.11072h-30.30016a30.14656 30.14656 0 0 1-30.11584 30.11072 30.14656 30.14656 0 0 1-30.10048-30.11072h-30.30016a30.13632 30.13632 0 0 1-30.10048 30.11072 30.1312 30.1312 0 0 1-30.1056-30.11072h-30.30016c0 16.59392-13.51168 30.11072-30.11072 30.11072s-30.11072-13.5168-30.11072-30.11072H523.776c0 16.59392-13.51168 30.11072-30.11072 30.11072s-30.11072-13.5168-30.11072-30.11072h-30.29504c0 16.59392-13.50656 30.11072-30.11072 30.11072s-30.11072-13.5168-30.11072-30.11072h-0.68608l63.34464-180.4032c9.9584-20.67456 18.59072-26.99776 36.608-26.99776h404.7616c18.01728 0 26.6496 6.3232 36.60288 26.98752l63.33952 180.40832h-0.68608a30.11584 30.11584 0 0 1-30.09536 30.11584z m0 0" p-id="2618" fill="#ffffff"></path><path d="M493.66528 447.0784h362.05056v27.10016H493.66528z" p-id="2619" fill="#ffffff"></path></svg>