<?xml version="1.0" standalone="no"?><!DOCTYPE svg PUBLIC "-//W3C//DTD SVG 1.1//EN" "http://www.w3.org/Graphics/SVG/1.1/DTD/svg11.dtd"><svg t="1624885762268" class="icon" viewBox="0 0 1024 1024" version="1.1" xmlns="http://www.w3.org/2000/svg" p-id="2340" xmlns:xlink="http://www.w3.org/1999/xlink" width="200" height="200"><defs><style type="text/css"></style></defs><path d="M103.077 907.628c0 23.299 18.366 41.902 40.96 41.902h335.661V497.757H103.077v409.871z m441.225 41.902h335.627c22.616 0 40.96-18.581 40.96-41.905V497.757H544.302V949.53z m369.504-692.252H728.517c49.064-10.733 87.571-32.974 93.898-73.797 7.419-46.588-50.096-117.189-119.682-108.236-83.267 11.134-144.312 81.742-187.387 136.538-42.702-53.748-98.452-116.487-178.245-134.715-77.295-17.579-130.237 59.47-128.817 107.136 1.388 40.462 39.206 62.372 89.616 73.092H110.189c-25.12 0-45.189 20.412-45.189 45.883v161.944h411.886v-201.74c15.167-1.446 28.588-3.193 39.525-4.638 0.321 0 0.642-0.291 0.685-0.334l0.004 0.009h1.426v-0.379h-1.763l-0.023-0.017h1.798v0.374c8.45 1.392 18.348 2.533 28.593 3.539v203.167H959V303.161c0-25.475-20.107-45.883-45.194-45.883z m-649.748-58.746c-14.081-15.033-4.586-35.485 4.246-50.858 16.233-27.232 38.789-43.769 77.296-28.351 53.64 21.528 93.156 67.083 125.302 107.872-68.161 7.202-169.799 10.053-206.844-28.663z m296.477 27.957c33.172-40.88 71.623-82.407 124.938-107.875 55.767-26.493 107.642 45.176 81.175 79.596-20.46 26.13-85.046 28.622-119.999 30.066-28.605 1.406-57.566 0.745-86.114-1.787z" p-id="2341"></path></svg>