<?xml version="1.0" standalone="no"?><!DOCTYPE svg PUBLIC "-//W3C//DTD SVG 1.1//EN" "http://www.w3.org/Graphics/SVG/1.1/DTD/svg11.dtd"><svg t="1622515179911" class="icon" viewBox="0 0 1024 1024" version="1.1" xmlns="http://www.w3.org/2000/svg" p-id="3657" xmlns:xlink="http://www.w3.org/1999/xlink" width="200" height="200"><defs><style type="text/css"></style></defs><path d="M161.735111 21.010963c38.987852-14.222222 119.599407 42.439111 167.461926 72.628148 15.720296 9.91763 28.520296 17.938963 36.408889 21.997037 9.519407 4.93037 19.531852 6.750815 29.392593 5.688889a54.101333 54.101333 0 0 0 27.666962-11.472593c10.183111-7.926519 20.062815-17.73037 30.340741-27.989333 25.125926-25.106963 52.830815-54.802963 100.939852-54.802963 47.255704 0 63.336296 25.637926 77.729185 47.160889 9.02637 13.50163 17.787259 25.78963 29.089185 34.038519 12.269037 8.969481 22.490074 10.998519 31.194075 10.429629 10.770963-0.663704 19.911111-6.068148 28.596148-12.477629 54.480593-34.133333 91.287704-51.825778 119.314963-60.302223 23.893333-7.205926 40.599704-8.533333 50.30874-0.986074 11.662222 9.045333 10.410667 27.799704 8.021334 46.174815-5.632 43.273481-28.406519 94.132148-37.034667 111.843556-22.414222 46.004148-60.491852 74.221037-87.589926 94.738963-4.323556 3.26163-8.38163 6.352593-12.136296 9.291851-6.428444 5.025185-13.482667 8.685037-20.878222 10.752l-43.235556 11.984593 38.72237 22.641778C873.358222 432.734815 967.111111 577.85837 967.111111 711.111111c0 90.870519-44.847407 159.099259-117.608296 205.861926-84.043852 54.044444-204.269037 79.928889-337.502815 79.928889-133.233778 0-253.458963-25.903407-337.502815-79.928889C101.736296 870.21037 56.888889 801.98163 56.888889 711.111111c0-132.740741 93.051259-277.276444 229.489778-357.869037l42.420148-25.031111-48.260741-9.860741a26.472296 26.472296 0 0 1-15.416889-8.760889C181.741037 213.674667 143.208296 147.456 129.896296 101.451852c-7.300741-25.296593-6.637037-43.387259-0.948148-56.073482 8.078222-18.014815 25.675852-23.115852 32.768-24.348444z m458.202074 390.769778c-17.009778 0-33.28 7.888593-45.037037 26.358518l-50.043259 92.197926c-4.892444 9.178074-9.216 17.426963-13.008593 24.76563-13.975704-27.382519-34.778074-66.408296-62.388148-117.077334a50.327704 50.327704 0 0 0-44.221629-26.24474 39.291259 39.291259 0 0 0-34.285038 19.721481c-6.200889 10.789926-7.774815 25.031111-1.15674 39.177482l56.850963 118.234074h-18.906074c-10.979556 0-20.916148 4.437333-28.103111 11.624296-7.186963 7.205926-11.624296 17.123556-11.624297 28.103111 0 9.955556 3.849481 19.019852 10.676148 25.846519 6.030222 6.049185 14.601481 10.467556 25.334519 11.434666l63.089778 2.74963 1.042963 13.330963h-60.719408c-10.884741 0-20.745481 4.41837-27.875555 11.567407-7.149037 7.130074-11.567407 16.971852-11.567408 27.875556 0 10.183111 3.944296 19.456 10.922667 26.43437 6.011259 6.011259 14.449778 10.42963 24.879407 11.567408l63.317334 9.140148v25.144889c0 12.250074 4.968296 23.343407 12.989629 31.383703a44.259556 44.259556 0 0 0 31.402667 13.008593c11.415704 0 21.807407-4.437333 29.582222-12.231111 7.130074-7.130074 12.193185-17.256296 13.122371-29.714963v-36.598519h58.121481a37.357037 37.357037 0 0 0 26.510222-10.998518 37.357037 37.357037 0 0 0 10.979556-26.491259c0-10.714074-4.152889-20.442074-11.472593-27.761778-6.637037-6.637037-16.080593-11.415704-27.799703-12.325926h-56.32v-16.023704h58.17837c10.334815 0 19.683556-4.171852 26.453333-10.960592 6.769778-6.769778 10.960593-16.118519 10.960593-26.434371 0-10.619259-4.114963-20.233481-11.358815-27.477333a42.68563 42.68563 0 0 0-25.637926-12.003556l-28.065185-5.006222 67.792592-115.294815a37.546667 37.546667 0 0 0 0.227556-37.982814 37.546667 37.546667 0 0 0-32.843852-19.057778z" p-id="3658"></path></svg>