<?xml version="1.0" standalone="no"?><!DOCTYPE svg PUBLIC "-//W3C//DTD SVG 1.1//EN" "http://www.w3.org/Graphics/SVG/1.1/DTD/svg11.dtd"><svg t="1623933621349" class="icon" viewBox="0 0 1449 1024" version="1.1" xmlns="http://www.w3.org/2000/svg" p-id="1269" xmlns:xlink="http://www.w3.org/1999/xlink" width="283.0078125" height="200"><defs><style type="text/css"></style></defs><path d="M774.31 132.173H612.335c-19.869 0-35.752 17.677-35.752 39.527 0 21.897 15.91 39.629 35.752 39.629h162.978c18.867 0 34.776-17.732 34.776-39.629 0.002-21.851-15.884-39.527-35.778-39.527z m175.882 26.384h-80.66c0.819 4.328 1.293 8.708 1.293 13.141 0.027 33.272-24.113 66.016-52.822 66.016H570.2c-30.213 0-54.383-32.743-54.383-66.016 0.028-4.433 0.502-8.812 1.321-13.141h-81.636c-65.621 0-81.742 37.202-81.742 90.868V781.03c0 57.652 23.087 89.918 86.698 89.918h504.77c63.616 0 94.536-25.299 94.536-89.889V249.426c0.005-53.665-28.943-90.867-89.574-90.867z m-82.873 524.876H516.556c-12.93 0-25.833-15.858-25.833-28.811 0-12.903 10.925-23.96 23.851-23.96h349.761c12.925 0 23.851 10.053 24.83 23.96 0 12.955-8.921 28.811-21.847 28.811z m1.425-140.756H517.981c-12.93 0-21.162-13.904-21.162-26.862 0-12.953 10.925-25.91 23.851-25.91h349.761c12.93 0 23.851 12.003 24.83 25.91 0 12.953-13.614 26.862-26.516 26.862z m0-144.567H517.981c-12.93 0-21.162-13.904-21.162-26.858s10.925-25.912 23.851-25.912h349.761c12.93 0 23.851 12.008 24.83 25.912 0 12.953-13.614 26.858-26.516 26.858z m0 0z" p-id="1270"></path></svg>