<?xml version="1.0" standalone="no"?><!DOCTYPE svg PUBLIC "-//W3C//DTD SVG 1.1//EN" "http://www.w3.org/Graphics/SVG/1.1/DTD/svg11.dtd"><svg t="1598407087098" class="icon" viewBox="0 0 1024 1024" version="1.1" xmlns="http://www.w3.org/2000/svg" p-id="2269" width="200" height="200"><path d="M639.53 810.667h128v-256c-56.917 0-99.583-28.459-128-85.334-28.458 56.875-71.125 85.334-128 85.334-56.917 0-99.583-28.459-128-85.334-28.458 56.875-71.125 85.334-128 85.334v256h128v-128a64 64 0 0 1 64-64h128a64 64 0 0 1 64 64v128z m-64 0v-128h-128v128h128zM852.438 512h0.427v298.667A85.333 85.333 0 0 1 767.531 896h-512a85.333 85.333 0 0 1-85.334-85.333V512h0.427c-13.483-16.128-25.472-36.821-36.053-62.08a85.333 85.333 0 0 1-5.718-45.013l29.227-203.691A85.333 85.333 0 0 1 242.56 128h537.899a85.333 85.333 0 0 1 84.48 73.216l29.226 203.69a85.333 85.333 0 0 1-5.717 45.014c-10.539 25.259-22.57 45.952-36.01 62.08zM242.56 213.333l-29.227 203.691c17.152 41.088 30.123 52.31 42.198 52.31 23.338 0 37.205-9.217 51.626-38.145 31.488-62.933 121.216-62.933 152.662 0 14.506 28.928 28.33 38.144 51.712 38.144 23.338 0 37.205-9.216 51.626-38.144 31.488-62.933 121.216-62.933 152.662 0 14.506 28.928 28.33 38.144 51.712 38.144 12.032 0 25.045-11.221 42.154-52.309l-29.226-203.69H242.56z" p-id="2270" fill="#cdcdcd"></path></svg>